<svg id="Layer_1" data-name="Layer 1" xmlns="http://www.w3.org/2000/svg" viewBox="0 0 24 24"><defs><style>.cls-1{fill:#3cc;}</style></defs><title>ic_check_box_fill</title><path class="cls-1" d="M17.18,7.24,10,14.59,6.81,11.25a1,1,0,0,0-1.39,0,1,1,0,0,0,0,1.43l3.94,4.05a1,1,0,0,0,1.39,0l7.83-8.06a1,1,0,0,0,0-1.43A1,1,0,0,0,17.18,7.24Z"/><path class="cls-1" d="M18.42,1H5.58A4.59,4.59,0,0,0,1,5.58V18.42A4.59,4.59,0,0,0,5.58,23H18.42A4.59,4.59,0,0,0,23,18.42V5.58A4.59,4.59,0,0,0,18.42,1Zm2.75,17.42a2.75,2.75,0,0,1-2.75,2.75H5.58a2.75,2.75,0,0,1-2.75-2.75V5.58A2.75,2.75,0,0,1,5.58,2.83H18.42a2.75,2.75,0,0,1,2.75,2.75Z"/></svg>