<svg id="Layer_1" data-name="Layer 1" xmlns="http://www.w3.org/2000/svg" viewBox="0 0 24 24"><defs><style>.cls-1{fill:#3cc;}</style></defs><title>ic_hand_luggage</title><path class="cls-1" d="M19.4,6H17a5.3,5.3,0,0,0-5-4.5A5.31,5.31,0,0,0,7,6H4.66A2.21,2.21,0,0,0,2.49,8.25v11A2.18,2.18,0,0,0,4.65,21.5H19.4a2.16,2.16,0,0,0,2.11-2.25v-11A2.16,2.16,0,0,0,19.4,6ZM4,19.25v-11a.71.71,0,0,1,.69-.75H19.4a.67.67,0,0,1,.64.75v11a.68.68,0,0,1-.64.75H4.66A.71.71,0,0,1,4,19.25ZM8.51,6A3.77,3.77,0,0,1,12,3a3.77,3.77,0,0,1,3.48,3Z"/></svg>