<svg id="Layer_1" data-name="Layer 1" xmlns="http://www.w3.org/2000/svg" viewBox="0 0 24 24"><defs><style>.cls-1{fill:#f0668a;fill-rule:evenodd;}</style></defs><title>ic_kuda</title><path class="cls-1" d="M12.5,10a2.23,2.23,0,0,1-2.29-2.18,2.29,2.29,0,0,1,4.57,0A2.23,2.23,0,0,1,12.5,10Zm5.26-5a5.91,5.91,0,0,0-3.32-2.65,5.56,5.56,0,0,0-.8-.21A8.34,8.34,0,0,0,12.7,2H12.3a8.34,8.34,0,0,0-.94.11,5.57,5.57,0,0,0-.8.21A5.92,5.92,0,0,0,7.24,5a5.52,5.52,0,0,0-.73,3.16,5.18,5.18,0,0,0,.37,1.59A7.94,7.94,0,0,0,7.55,11c1,1.59,2.32,3,3.08,4.82a25.89,25.89,0,0,1,1,2.91A18.11,18.11,0,0,1,12.3,22h.39a18,18,0,0,1,.65-3.26,26,26,0,0,1,1-2.91c.76-1.82,2.1-3.23,3.08-4.82a7.86,7.86,0,0,0,.67-1.3,5.15,5.15,0,0,0,.37-1.59A5.51,5.51,0,0,0,17.76,5Z"/></svg>