<svg id="Layer_1" data-name="Layer 1" xmlns="http://www.w3.org/2000/svg" viewBox="0 0 24 24"><defs><style>.cls-1{fill:#3cc;}</style></defs><title>ic_luggage</title><path class="cls-1" d="M19.27,5.6H15.33V3A1.28,1.28,0,0,0,15.07.48H8.93A1.27,1.27,0,0,0,7.64,1.76h0A1.28,1.28,0,0,0,8.67,3V5.6H4.79a2.26,2.26,0,0,0-2.28,2.3V19.17a2.29,2.29,0,0,0,2.28,2.29H6.61v.78a1.26,1.26,0,0,0,.38.9,1.28,1.28,0,0,0,.91.37h0a1.28,1.28,0,0,0,.91-.37,1.26,1.26,0,0,0,.37-.9v-.77h5.63v.78a1.28,1.28,0,0,0,1.28,1.27h0a1.28,1.28,0,0,0,.91-.37,1.26,1.26,0,0,0,.37-.9v-.77h1.89a2.24,2.24,0,0,0,2.22-2.29V7.89A2.24,2.24,0,0,0,19.27,5.6ZM4.79,19.93a.74.74,0,0,1-.74-.76V7.89a.74.74,0,0,1,.74-.76H19.27a.69.69,0,0,1,.68.76V19.17a.7.7,0,0,1-.68.76H4.79Zm3.1,2.3h0ZM10.21,3h3.57V5.6H10.21Z"/></svg>