<svg id="Layer_1" data-name="Layer 1" xmlns="http://www.w3.org/2000/svg" viewBox="0 0 24 24"><defs><style>.cls-1{fill:#3cc;}</style></defs><title>ic_media</title><path class="cls-1" d="M17.45,3.43H7.39a3,3,0,0,0-3,3v7.88a3,3,0,0,0,3,3H17.47a3,3,0,0,0,3-3V6.45A3,3,0,0,0,17.45,3.43ZM19,14.2h0a1.69,1.69,0,0,1-1.67,1.7H7.56a1.69,1.69,0,0,1-1.67-1.7V6.58a1.69,1.69,0,0,1,1.67-1.7h9.75A1.69,1.69,0,0,1,19,6.58ZM11.09,7.47a.48.48,0,0,0-.74.41v5a.48.48,0,0,0,.74.41l3.73-2.51a.49.49,0,0,0,0-.81ZM16.44,19h-8a.72.72,0,0,0,0,1.43h8a.72.72,0,0,0,0-1.43Z"/></svg>