<svg id="Layer_1" data-name="Layer 1" xmlns="http://www.w3.org/2000/svg" viewBox="0 0 24 24"><defs><style>.cls-1{fill:#3cc;}</style></defs><title>ic_usb</title><path class="cls-1" d="M4.3,17.15l1.17,1.17-3,3,1.17,1.17,3-3,1.17,1.17L9,19.48,5.47,16ZM21.83,6.63,18.33,3.12a1.66,1.66,0,0,0-2.34,0L13.65,5.46a1.66,1.66,0,0,0-2.34,0L5.47,11.3a1.66,1.66,0,0,0,0,2.34l5.84,5.84a1.66,1.66,0,0,0,2.34,0l5.84-5.84a1.66,1.66,0,0,0,0-2.34L21.83,9A1.66,1.66,0,0,0,21.83,6.63ZM17.92,13l-4.73,4.73a1,1,0,0,1-1.42,0L7,13a1,1,0,0,1,0-1.42L11.77,6.9a1,1,0,0,1,1.42,0l4.73,4.73A1,1,0,0,1,17.92,13Zm-.77-6.42L16,5.46l1.17-1.17,1.17,1.17ZM19.5,9,18.33,7.8l1.17-1.17L20.66,7.8Z"/></svg>